<svg width="192" height="256" viewBox="0 0 192 256" fill="none" xmlns="http://www.w3.org/2000/svg">
<path d="M146.339 12.7993H45.651C42.8234 12.7993 40.5313 15.0915 40.5313 17.9191V238.068C40.5313 240.895 42.8234 243.188 45.651 243.188H146.339C149.167 243.188 151.459 240.895 151.459 238.068V17.9191C151.459 15.0915 149.167 12.7993 146.339 12.7993Z" fill="#9CA3AF" stroke="#6B7280" stroke-width="1.70658"/>
<path opacity="0.7" d="M139.513 25.5987H52.4773C50.5923 25.5987 49.0642 27.1268 49.0642 29.0119V226.975C49.0642 228.86 50.5923 230.388 52.4773 230.388H139.513C141.398 230.388 142.926 228.86 142.926 226.975V29.0119C142.926 27.1268 141.398 25.5987 139.513 25.5987Z" fill="#D1D5DB" stroke="#9CA3AF" stroke-width="1.70658"/>
<path d="M135.246 122.02C135.246 120.607 134.1 119.461 132.687 119.461C131.273 119.461 130.127 120.607 130.127 122.02V151.032C130.127 152.446 131.273 153.592 132.687 153.592C134.1 153.592 135.246 152.446 135.246 151.032V122.02Z" fill="#4B5563"/>
<path d="M53.3306 85.329H138.66" stroke="#9CA3AF" stroke-width="1.70658"/>
<path d="M53.3306 140.793H138.66" stroke="#9CA3AF" stroke-width="1.70658"/>
<path d="M53.3306 196.257H138.66" stroke="#9CA3AF" stroke-width="1.70658"/>
<path opacity="0.6" d="M70.3964 63.9967H63.5701C62.6276 63.9967 61.8635 64.7608 61.8635 65.7033V79.3559C61.8635 80.2985 62.6276 81.0625 63.5701 81.0625H70.3964C71.3389 81.0625 72.103 80.2985 72.103 79.3559V65.7033C72.103 64.7608 71.3389 63.9967 70.3964 63.9967Z" fill="#6B7280"/>
<path opacity="0.6" d="M85.7556 63.9967H78.9293C77.9868 63.9967 77.2227 64.7608 77.2227 65.7033V79.3559C77.2227 80.2985 77.9868 81.0625 78.9293 81.0625H85.7556C86.6981 81.0625 87.4622 80.2985 87.4622 79.3559V65.7033C87.4622 64.7608 86.6981 63.9967 85.7556 63.9967Z" fill="#6B7280"/>
<path opacity="0.6" d="M101.115 63.9967H94.2885C93.346 63.9967 92.5819 64.7608 92.5819 65.7033V79.3559C92.5819 80.2985 93.346 81.0625 94.2885 81.0625H101.115C102.057 81.0625 102.821 80.2985 102.821 79.3559V65.7033C102.821 64.7608 102.057 63.9967 101.115 63.9967Z" fill="#6B7280"/>
<path opacity="0.6" d="M116.474 63.9967H109.648C108.705 63.9967 107.941 64.7608 107.941 65.7033V79.3559C107.941 80.2985 108.705 81.0625 109.648 81.0625H116.474C117.417 81.0625 118.181 80.2985 118.181 79.3559V65.7033C118.181 64.7608 117.417 63.9967 116.474 63.9967Z" fill="#6B7280"/>
<path opacity="0.6" d="M70.3964 119.461H63.5701C62.6276 119.461 61.8635 120.225 61.8635 121.167V134.82C61.8635 135.762 62.6276 136.526 63.5701 136.526H70.3964C71.3389 136.526 72.103 135.762 72.103 134.82V121.167C72.103 120.225 71.3389 119.461 70.3964 119.461Z" fill="#6B7280"/>
<path opacity="0.6" d="M85.7556 119.461H78.9293C77.9868 119.461 77.2227 120.225 77.2227 121.167V134.82C77.2227 135.762 77.9868 136.526 78.9293 136.526H85.7556C86.6981 136.526 87.4622 135.762 87.4622 134.82V121.167C87.4622 120.225 86.6981 119.461 85.7556 119.461Z" fill="#6B7280"/>
<path opacity="0.6" d="M101.115 119.461H94.2885C93.346 119.461 92.5819 120.225 92.5819 121.167V134.82C92.5819 135.762 93.346 136.526 94.2885 136.526H101.115C102.057 136.526 102.821 135.762 102.821 134.82V121.167C102.821 120.225 102.057 119.461 101.115 119.461Z" fill="#6B7280"/>
<path opacity="0.6" d="M116.474 119.461H109.648C108.705 119.461 107.941 120.225 107.941 121.167V134.82C107.941 135.762 108.705 136.526 109.648 136.526H116.474C117.417 136.526 118.181 135.762 118.181 134.82V121.167C118.181 120.225 117.417 119.461 116.474 119.461Z" fill="#6B7280"/>
<path opacity="0.6" d="M70.3964 174.924H63.5701C62.6276 174.924 61.8635 175.688 61.8635 176.631V190.284C61.8635 191.226 62.6276 191.99 63.5701 191.99H70.3964C71.3389 191.99 72.103 191.226 72.103 190.284V176.631C72.103 175.688 71.3389 174.924 70.3964 174.924Z" fill="#6B7280"/>
<path opacity="0.6" d="M85.7556 174.924H78.9293C77.9868 174.924 77.2227 175.688 77.2227 176.631V190.284C77.2227 191.226 77.9868 191.99 78.9293 191.99H85.7556C86.6981 191.99 87.4622 191.226 87.4622 190.284V176.631C87.4622 175.688 86.6981 174.924 85.7556 174.924Z" fill="#6B7280"/>
<path opacity="0.6" d="M101.115 174.924H94.2885C93.346 174.924 92.5819 175.688 92.5819 176.631V190.284C92.5819 191.226 93.346 191.99 94.2885 191.99H101.115C102.057 191.99 102.821 191.226 102.821 190.284V176.631C102.821 175.688 102.057 174.924 101.115 174.924Z" fill="#6B7280"/>
<path opacity="0.6" d="M116.474 174.924H109.648C108.705 174.924 107.941 175.688 107.941 176.631V190.284C107.941 191.226 108.705 191.99 109.648 191.99H116.474C117.417 191.99 118.181 191.226 118.181 190.284V176.631C118.181 175.688 117.417 174.924 116.474 174.924Z" fill="#6B7280"/>
<path opacity="0.4" d="M139.513 25.5987H52.4773C50.5923 25.5987 49.0642 27.1268 49.0642 29.0119V43.5178C49.0642 45.4028 50.5923 46.9309 52.4773 46.9309H139.513C141.398 46.9309 142.926 45.4028 142.926 43.5178V29.0119C142.926 27.1268 141.398 25.5987 139.513 25.5987Z" fill="#9CA3AF"/>
</svg>